<svg viewBox="0 0 28 36"
 xmlns="http://www.w3.org/2000/svg"
 xmlns:xlink="http://www.w3.org/1999/xlink"
 class="header-nav__menu-item-icon icon" width="31px" height="41px">
<path 
 d="M23.387,18.596 C23.343,14.163 26.938,12.037 27.099,11.932 C25.079,8.923 21.932,8.512 20.811,8.463 C18.133,8.188 15.586,10.069 14.227,10.069 C12.871,10.069 10.774,8.504 8.554,8.546 C5.635,8.589 2.944,10.273 1.441,12.934 C-1.592,18.289 0.664,26.224 3.620,30.568 C5.064,32.694 6.786,35.082 9.047,34.997 C11.225,34.908 12.048,33.562 14.681,33.562 C17.313,33.562 18.053,34.997 20.357,34.953 C22.700,34.908 24.185,32.786 25.619,30.653 C27.278,28.186 27.961,25.798 28.001,25.675 C27.949,25.651 23.432,23.890 23.387,18.596 ZM19.057,5.588 C20.257,4.106 21.067,2.050 20.846,-0.001 C19.117,0.070 17.022,1.172 15.782,2.649 C14.669,3.961 13.695,6.055 13.956,8.065 C15.886,8.218 17.855,7.067 19.057,5.588 Z"/>
</svg>