<svg 
 xmlns="http://www.w3.org/2000/svg"
 xmlns:xlink="http://www.w3.org/1999/xlink"
 width="18px" height="12px">
<path 
 d="M0.779,6.753 L15.341,6.753 L11.866,10.113 C11.562,10.407 11.562,10.885 11.866,11.179 C12.170,11.473 12.664,11.473 12.968,11.179 L17.773,6.532 C18.077,6.238 18.077,5.760 17.773,5.467 L12.968,0.819 C12.816,0.672 12.616,0.598 12.417,0.598 C12.218,0.598 12.018,0.672 11.866,0.819 C11.562,1.114 11.562,1.591 11.866,1.885 L15.341,5.245 L0.779,5.245 C0.349,5.245 -0.000,5.583 -0.000,5.999 C-0.000,6.415 0.349,6.753 0.779,6.753 Z"/>
</svg>