<svg 
 xmlns="http://www.w3.org/2000/svg"
 xmlns:xlink="http://www.w3.org/1999/xlink"
 width="17px" height="15px">
<path fill-rule="evenodd"  fill="rgb(40, 116, 148)"
 d="M16.182,8.042 C16.004,8.219 15.772,8.308 15.539,8.308 C15.307,8.308 15.074,8.220 14.896,8.042 L8.888,2.037 C8.693,1.843 8.348,1.843 8.152,2.038 L2.145,8.042 C1.790,8.397 1.214,8.397 0.859,8.042 C0.505,7.687 0.505,7.113 0.859,6.758 L6.867,0.753 C7.750,-0.130 9.288,-0.132 10.172,0.752 L11.961,2.540 L11.961,1.582 C11.961,1.080 12.368,0.674 12.870,0.674 C13.372,0.674 13.779,1.080 13.779,1.582 L13.779,4.356 L16.182,6.758 C16.537,7.113 16.537,7.687 16.182,8.042 ZM8.205,3.761 C8.379,3.587 8.662,3.587 8.836,3.761 L14.120,9.041 C14.204,9.125 14.251,9.239 14.251,9.357 L14.251,13.208 C14.251,14.112 13.518,14.844 12.614,14.844 L9.997,14.844 L9.997,10.795 L7.043,10.795 L7.043,14.844 L4.427,14.844 C3.523,14.844 2.790,14.112 2.790,13.208 L2.790,9.357 C2.790,9.239 2.837,9.125 2.920,9.041 L8.205,3.761 Z"/>
</svg>
