<svg 
 xmlns="http://www.w3.org/2000/svg"
 xmlns:xlink="http://www.w3.org/1999/xlink"
 width="19px" height="15px">

<path fill-rule="evenodd"  fill="rgb(0, 0, 0)"
 d="M18.464,14.436 C18.134,14.767 17.736,14.932 17.271,14.932 L1.729,14.932 C1.264,14.932 0.866,14.767 0.535,14.436 C0.204,14.105 0.039,13.707 0.039,13.242 L0.039,4.859 C0.349,5.204 0.704,5.510 1.106,5.778 C3.654,7.509 5.403,8.724 6.353,9.421 C6.755,9.715 7.080,9.946 7.330,10.112 C7.580,10.277 7.913,10.446 8.328,10.618 C8.743,10.791 9.130,10.877 9.489,10.877 L9.500,10.877 L9.511,10.877 C9.870,10.877 10.257,10.791 10.672,10.618 C11.087,10.446 11.420,10.277 11.670,10.112 C11.920,9.946 12.245,9.715 12.646,9.421 C13.843,8.554 15.596,7.340 17.905,5.778 C18.306,5.503 18.658,5.197 18.961,4.859 L18.961,13.242 C18.961,13.707 18.795,14.105 18.464,14.436 ZM17.155,4.647 C14.509,6.485 12.861,7.629 12.214,8.079 C12.143,8.129 11.994,8.235 11.765,8.401 C11.536,8.567 11.346,8.701 11.195,8.803 C11.043,8.905 10.860,9.019 10.646,9.146 C10.431,9.271 10.229,9.367 10.039,9.431 C9.849,9.494 9.672,9.525 9.511,9.525 L9.500,9.525 L9.489,9.525 C9.327,9.525 9.151,9.494 8.961,9.431 C8.771,9.367 8.569,9.271 8.354,9.146 C8.139,9.019 7.956,8.905 7.805,8.803 C7.654,8.701 7.464,8.567 7.235,8.401 C7.006,8.236 6.857,8.129 6.786,8.079 C6.146,7.629 5.224,6.987 4.020,6.152 C2.816,5.319 2.095,4.816 1.855,4.647 C1.419,4.352 1.007,3.945 0.620,3.428 C0.233,2.911 0.039,2.430 0.039,1.987 C0.039,1.438 0.185,0.980 0.477,0.614 C0.769,0.248 1.186,0.065 1.728,0.065 L17.271,0.065 C17.729,0.065 18.125,0.230 18.459,0.561 C18.793,0.892 18.961,1.289 18.961,1.754 C18.961,2.311 18.788,2.842 18.443,3.349 C18.098,3.856 17.669,4.289 17.155,4.647 Z"/>
</g>
</svg>