<svg class="header-nav__menu-item-icon icon" 
 xmlns="http://www.w3.org/2000/svg"
 xmlns:xlink="http://www.w3.org/1999/xlink"
viewBox="0 2 16 24" width="18px" height="32px" >
<path
 d="M14.138,0.598 L2.861,0.598 C1.783,0.598 0.912,1.473 0.912,2.550 L0.912,25.449 C0.912,26.525 1.783,27.399 2.861,27.399 L14.137,27.399 C15.215,27.399 16.088,26.525 16.088,25.449 L16.088,2.550 C16.089,1.473 15.216,0.598 14.138,0.598 ZM5.716,1.785 L11.285,1.785 C11.425,1.785 11.539,1.994 11.539,2.255 C11.539,2.515 11.425,2.726 11.285,2.726 L5.716,2.726 C5.576,2.726 5.463,2.515 5.463,2.255 C5.463,1.994 5.576,1.785 5.716,1.785 ZM8.500,25.473 C7.813,25.473 7.254,24.915 7.254,24.226 C7.254,23.538 7.814,22.983 8.500,22.983 C9.186,22.983 9.746,23.541 9.746,24.226 C9.746,24.915 9.185,25.473 8.500,25.473 ZM14.627,21.205 L2.373,21.205 L2.373,3.892 L14.627,3.892 L14.627,21.205 Z"/>
</svg>