<svg  class="header-nav__menu-item-icon icon" width="37px" height="36px" viewBox="0 -2 35 26"
 xmlns="http://www.w3.org/2000/svg"
 xmlns:xlink="http://www.w3.org/1999/xlink"
>
<path 
 d="M34.142,23.471 C33.571,23.820 32.885,23.995 32.083,23.995 L2.917,23.995 C2.115,23.995 1.429,23.820 0.857,23.471 C0.286,23.121 0.001,22.696 0.001,22.197 L0.001,20.397 L2.917,20.397 L32.083,20.397 L34.999,20.397 L34.999,22.197 C34.999,22.696 34.713,23.121 34.142,23.471 ZM18.958,21.596 L16.042,21.596 C15.847,21.596 15.750,21.696 15.750,21.896 C15.750,22.096 15.847,22.197 16.042,22.197 L18.958,22.197 C19.153,22.197 19.250,22.096 19.250,21.896 C19.250,21.696 19.153,21.596 18.958,21.596 ZM27.416,19.197 L7.584,19.197 C6.782,19.197 6.095,18.903 5.524,18.316 C4.953,17.729 4.667,17.022 4.667,16.198 L4.667,3.002 C4.667,2.176 4.953,1.471 5.524,0.883 C6.095,0.295 6.782,0.002 7.584,0.002 L27.416,0.002 C28.218,0.002 28.905,0.295 29.476,0.883 C30.047,1.471 30.333,2.176 30.333,3.002 L30.333,16.198 C30.333,17.022 30.047,17.729 29.476,18.316 C28.905,18.903 28.218,19.197 27.416,19.197 ZM27.999,3.002 C27.999,2.839 27.941,2.699 27.826,2.579 C27.711,2.460 27.574,2.401 27.416,2.401 L7.584,2.401 C7.426,2.401 7.289,2.461 7.174,2.579 C7.058,2.699 7.000,2.839 7.000,3.002 L7.000,16.198 C7.000,16.360 7.058,16.501 7.173,16.619 C7.289,16.738 7.426,16.798 7.584,16.798 L27.416,16.798 C27.574,16.798 27.711,16.738 27.826,16.619 C27.941,16.502 27.999,16.360 27.999,16.198 L27.999,3.002 Z"/>
</svg>