<svg class="header-nav__menu-item-icon icon"
 xmlns="http://www.w3.org/2000/svg"
 xmlns:xlink="http://www.w3.org/1999/xlink"
 width="38px" height="35px"
 viewBox="0 0 34 32">
<path
 d="M30.276,22.739 L12.220,22.739 L12.220,18.726 L30.276,18.726 L30.276,2.677 L12.220,2.677 L6.202,2.677 L4.196,2.677 C4.196,1.570 5.093,0.671 6.202,0.671 L30.276,0.671 C31.385,0.671 32.282,1.570 32.282,2.677 L32.282,20.733 C32.282,21.841 31.385,22.739 30.276,22.739 ZM18.239,19.729 C17.685,19.729 17.236,20.178 17.236,20.733 C17.236,21.287 17.685,21.735 18.239,21.735 C18.794,21.735 19.242,21.287 19.242,20.733 C19.242,20.178 18.794,19.729 18.239,19.729 ZM10.214,6.690 L10.214,28.757 C10.214,29.866 9.317,30.763 8.208,30.763 L2.189,30.763 C1.081,30.763 0.183,29.866 0.183,28.757 L0.183,6.690 C0.183,5.582 1.081,4.683 2.189,4.683 L8.208,4.683 C9.317,4.683 10.214,5.582 10.214,6.690 ZM3.193,24.745 C3.747,24.745 4.196,24.296 4.196,23.742 C4.196,23.187 3.747,22.739 3.193,22.739 C2.638,22.739 2.189,23.187 2.189,23.742 C2.189,24.296 2.638,24.745 3.193,24.745 ZM2.189,12.707 L8.208,12.707 L8.208,10.701 L2.189,10.701 L2.189,12.707 ZM2.189,8.696 L8.208,8.696 L8.208,6.690 L2.189,6.690 L2.189,8.696 ZM15.230,26.752 L15.230,24.745 L21.248,24.745 L21.248,26.752 C22.357,26.752 23.255,27.649 23.255,28.757 L13.224,28.757 C13.224,27.649 14.121,26.752 15.230,26.752 Z"/>
</svg>