<svg aria-hidden="true" style="position: absolute; width: 0; height: 0; overflow: hidden;" version="1.1" xmlns="http://www.w3.org/2000/svg" xmlns:xlink="http://www.w3.org/1999/xlink">
<defs>
<symbol id="icon-warranty1" viewBox="0 0 19 32">
<title>warranty1</title>
<path d="M16.369 0.329h-13.868c-1.156 0-2.102 0.952-2.102 2.117v27.106c0 1.163 0.946 2.113 2.102 2.115h13.868c1.156-0.002 2.102-0.952 2.102-2.115v-27.106c0-1.165-0.946-2.117-2.102-2.117zM7.216 1.855h4.438c0.139 0 0.254 0.115 0.254 0.256s-0.114 0.257-0.254 0.257h-4.437c-0.14 0-0.255-0.116-0.255-0.257s0.115-0.256 0.254-0.256zM1.861 27.75v-24.064h15.147v21.896l-3.418-5.963c1.025-1.574 1.171-3.647 0.173-5.388-1-1.743-2.855-2.652-4.72-2.546l1.896 3.308c0.632 1.101 0.257 2.511-0.837 3.147s-2.491 0.257-3.122-0.844l-1.897-3.31c-1.024 1.576-1.17 3.65-0.171 5.392s2.853 2.649 4.718 2.544l3.34 5.828h-11.109zM9.435 30.613c-0.581 0-1.050-0.477-1.050-1.061 0-0.585 0.47-1.060 1.050-1.060s1.050 0.474 1.050 1.060c0 0.584-0.471 1.061-1.050 1.061z"></path>
</symbol>
<symbol id="icon-warranty2" viewBox="0 0 33 32">
<title>warranty2</title>
<path d="M24.087 14.097c-0.791-0.089-1.598 0.107-2.283 0.562l-3.345-3.292c0.474-0.693 0.677-1.511 0.585-2.311l9.004-9.003 5.040 5.040-9.001 9.004zM30.436 26.235c1.295 1.301 1.295 3.399 0 4.69-0.649 0.646-1.497 0.974-2.345 0.974-0.849 0-1.697-0.327-2.345-0.974l-16.391-16.39c-2.436 0.794-5.222 0.226-7.156-1.708-1.845-1.846-2.448-4.458-1.813-6.805l3.978 3.975 3.9-1.045 1.045-3.895-3.979-3.979c2.35-0.638 4.96-0.032 6.809 1.808 1.855 1.858 2.454 4.5 1.793 6.863l16.503 16.486zM28.375 30.369c0.704 0 1.271-0.566 1.27-1.268 0-0.7-0.567-1.264-1.27-1.264-0.695 0-1.26 0.564-1.26 1.264 0 0.702 0.565 1.268 1.26 1.268zM5.776 25.3l0.326 0.327 5.714-5.719 1.424 1.404-5.726 5.726 0.327 0.332-1.378 1.702-4.534 2.875-0.736-0.736 2.874-4.532 1.708-1.38z"></path>
</symbol>
<symbol id="icon-warranty3" viewBox="0 0 33 32">
<title>warranty3</title>
<path d="M20.95 13.619c-0.038-0.316-0.158-0.604-0.343-0.844l1.266-7.855c0.047-0.293-0.14-0.571-0.428-0.638l-0.014-0.003c-0.288-0.067-0.579 0.102-0.665 0.385l-2.306 7.615c-0.568 0.286-0.962 0.868-0.962 1.547 0 0.957 0.778 1.737 1.736 1.737 0.179 0 0.348-0.036 0.51-0.085l4.817 2.502c0.265 0.138 0.591 0.053 0.755-0.198l0.007-0.011c0.162-0.25 0.108-0.583-0.125-0.769l-4.247-3.383zM18.375 13.825c0-0.474 0.385-0.858 0.858-0.858 0.474 0 0.859 0.384 0.859 0.858s-0.385 0.858-0.859 0.858c-0.473 0-0.858-0.384-0.858-0.858zM32.31 13.825c0 5.815-3.816 10.753-9.075 12.448v-1.862c4.271-1.621 7.317-5.754 7.317-10.586 0-6.242-5.078-11.319-11.319-11.319s-11.319 5.077-11.319 11.319c0 0.627 0.054 1.24 0.152 1.838h-1.778c-0.085-0.601-0.132-1.215-0.132-1.838 0-7.211 5.866-13.078 13.077-13.078s13.077 5.866 13.077 13.078zM21.512 23.143l-4.025-3.981c-0.255-0.256-0.602-0.395-0.958-0.395h-2.030v-0.761c0-0.568-0.461-1.024-1.028-1.024h-11.724c-0.567 0-1.024 0.456-1.024 1.024v6.855h21.194v-0.746c0-0.365-0.145-0.717-0.405-0.971zM19.759 23.274h-3.898c-0.088 0-0.159-0.069-0.159-0.158v-3.010c0-0.089 0.071-0.158 0.159-0.158h0.742c0.040 0 0.084 0.017 0.115 0.043l3.15 3.010c0.105 0.098 0.035 0.273-0.109 0.273zM21.918 25.428v2.268c0 0.566-0.459 1.024-1.025 1.024h-1.096c-0.197-1.359-1.369-2.404-2.783-2.404-1.41 0-2.581 1.045-2.779 2.404h-5.557c-0.197-1.359-1.369-2.404-2.779-2.404s-2.582 1.045-2.78 2.404h-1.373c-0.566 0-1.024-0.458-1.024-1.024v-2.268h21.195zM17.017 27.001c-1.173 0-2.126 0.95-2.126 2.123 0 1.173 0.954 2.126 2.126 2.126 1.174 0 2.123-0.954 2.123-2.126 0-1.174-0.95-2.123-2.123-2.123zM17.017 30.187c-0.588 0-1.063-0.474-1.063-1.063 0-0.585 0.475-1.063 1.063-1.063 0.585 0 1.059 0.478 1.059 1.063 0 0.589-0.474 1.063-1.059 1.063zM5.899 27.001c-1.174 0-2.126 0.95-2.126 2.123 0 1.173 0.953 2.126 2.126 2.126s2.122-0.954 2.122-2.126c0-1.174-0.949-2.123-2.122-2.123zM5.899 30.187c-0.589 0-1.063-0.474-1.063-1.063 0-0.585 0.474-1.063 1.063-1.063 0.584 0 1.063 0.478 1.063 1.063 0 0.589-0.479 1.063-1.063 1.063z"></path>
</symbol>
<symbol id="icon-warranty4" viewBox="0 0 28 32">
<title>warranty4</title>
<path d="M26.721 17.762c0.587-0.887 0.881-1.865 0.881-2.932 0-1.234-0.455-2.307-1.366-3.219s-1.99-1.367-3.236-1.367h-3.165c0.576-1.186 0.864-2.336 0.864-3.452 0-1.402-0.211-2.517-0.63-3.343-0.419-0.829-1.031-1.437-1.834-1.826s-1.708-0.584-2.716-0.584c-0.611 0-1.151 0.221-1.618 0.665-0.515 0.503-0.887 1.15-1.116 1.942-0.227 0.791-0.41 1.549-0.548 2.274-0.137 0.725-0.35 1.238-0.638 1.537-0.587 0.636-1.228 1.404-1.924 2.302-1.21 1.57-2.031 2.499-2.463 2.787h-4.926c-0.636 0-1.178 0.225-1.628 0.674-0.45 0.449-0.674 0.992-0.674 1.626v11.508c0 0.636 0.224 1.177 0.674 1.628 0.449 0.449 0.992 0.675 1.628 0.675h5.177c0.264 0 1.091 0.238 2.482 0.718 1.474 0.515 2.772 0.908 3.893 1.177 1.12 0.27 2.257 0.405 3.407 0.405h2.319c1.689 0 3.050-0.483 4.081-1.449 1.031-0.963 1.54-2.28 1.529-3.946 0.718-0.922 1.078-1.99 1.078-3.2 0-0.264-0.018-0.522-0.054-0.774 0.456-0.802 0.684-1.666 0.684-2.589 0-0.431-0.054-0.845-0.162-1.24zM4.246 26.015c-0.228 0.227-0.498 0.342-0.81 0.342-0.311 0-0.58-0.115-0.809-0.342-0.227-0.228-0.341-0.499-0.341-0.81s0.113-0.58 0.341-0.809c0.228-0.227 0.498-0.342 0.809-0.342 0.312 0 0.582 0.115 0.81 0.342 0.227 0.228 0.341 0.498 0.341 0.809s-0.114 0.582-0.341 0.81zM24.915 16.306c-0.258 0.552-0.579 0.833-0.962 0.845 0.18 0.203 0.33 0.489 0.449 0.854 0.12 0.365 0.18 0.698 0.18 0.998 0 0.828-0.318 1.54-0.953 2.14 0.216 0.383 0.324 0.797 0.324 1.24s-0.105 0.884-0.314 1.322c-0.21 0.437-0.494 0.751-0.854 0.943 0.060 0.359 0.089 0.695 0.089 1.006 0 2.003-1.151 3.002-3.453 3.002h-2.175c-1.57 0-3.62-0.436-6.15-1.312-0.060-0.024-0.234-0.087-0.521-0.189-0.288-0.102-0.501-0.177-0.639-0.225s-0.348-0.116-0.63-0.206c-0.281-0.089-0.509-0.156-0.683-0.199-0.173-0.041-0.372-0.079-0.593-0.117-0.222-0.034-0.41-0.053-0.567-0.053h-0.575v-11.507h0.575c0.192 0 0.405-0.054 0.639-0.161 0.234-0.108 0.473-0.27 0.719-0.487 0.245-0.215 0.476-0.429 0.692-0.638 0.216-0.21 0.456-0.473 0.719-0.791s0.47-0.573 0.62-0.765c0.15-0.192 0.339-0.437 0.566-0.737 0.228-0.299 0.366-0.48 0.414-0.54 0.659-0.814 1.121-1.359 1.385-1.636 0.491-0.515 0.847-1.171 1.069-1.969 0.222-0.797 0.405-1.549 0.548-2.255 0.143-0.707 0.372-1.217 0.684-1.529 1.15 0 1.918 0.281 2.301 0.845 0.384 0.564 0.576 1.433 0.576 2.607 0 0.707-0.288 1.668-0.864 2.886-0.575 1.217-0.863 2.172-0.863 2.868h6.329c0.599 0 1.133 0.231 1.6 0.692 0.468 0.461 0.702 0.999 0.702 1.609 0 0.42-0.129 0.906-0.386 1.458z"></path>
</symbol>
</defs>
</svg>
