<svg aria-hidden="true" style="position: absolute; width: 0; height: 0; overflow: hidden;" version="1.1" xmlns="http://www.w3.org/2000/svg" xmlns:xlink="http://www.w3.org/1999/xlink">
<defs>
<symbol id="icon-arrow-right" viewBox="0 0 48 32">
<title>arrow-right</title>
<path  d="M2.077 18.008h38.832l-9.267 8.96c-0.811 0.784-0.811 2.059 0 2.843s2.128 0.784 2.939 0l12.813-12.392c0.811-0.784 0.811-2.059 0-2.84l-12.813-12.395c-0.405-0.392-0.939-0.589-1.469-0.589s-1.064 0.197-1.469 0.589c-0.811 0.787-0.811 2.059 0 2.843l9.267 8.96h-38.832c-1.147 0-2.077 0.901-2.077 2.011s0.931 2.011 2.077 2.011z"></path>
</symbol>
<symbol id="icon-apple" viewBox="0 0 28 36">
<title>apple</title>
<path  d="M21.382 17.002c-0.040-4.053 3.247-5.997 3.394-6.093-1.847-2.751-4.724-3.127-5.749-3.172-2.448-0.251-4.777 1.468-6.020 1.468-1.24 0-3.157-1.431-5.187-1.392-2.669 0.039-5.129 1.579-6.503 4.012-2.773 4.896-0.71 12.151 1.992 16.122 1.32 1.944 2.895 4.127 4.962 4.049 1.991-0.081 2.744-1.312 5.151-1.312s3.083 1.312 5.189 1.272c2.142-0.041 3.5-1.981 4.811-3.931 1.517-2.256 2.141-4.439 2.178-4.551-0.048-0.022-4.177-1.632-4.218-6.472zM17.424 5.109c1.097-1.355 1.838-3.235 1.636-5.11-1.581 0.065-3.496 1.072-4.63 2.423-1.018 1.2-1.908 3.114-1.669 4.952 1.765 0.14 3.565-0.912 4.664-2.265z"></path>
</symbol>
<symbol id="icon-home" viewBox="0 0 32 32">
<title>home</title>
<path d="M30.46 17.020c-0.335 0.333-0.772 0.501-1.21 0.501-0.437 0-0.875-0.166-1.21-0.501l-11.309-11.304c-0.367-0.365-1.016-0.365-1.385 0.002l-11.307 11.302c-0.668 0.668-1.752 0.668-2.421 0-0.666-0.668-0.666-1.749 0-2.417l11.309-11.304c1.662-1.662 4.557-1.666 6.221-0.002l3.368 3.366v-1.803c0-0.945 0.766-1.709 1.711-1.709s1.711 0.764 1.711 1.709v5.222l4.523 4.521c0.668 0.668 0.668 1.749 0 2.417zM15.445 8.962c0.328-0.328 0.86-0.328 1.188 0l9.946 9.939c0.158 0.158 0.247 0.373 0.247 0.595v7.249c0 1.702-1.38 3.080-3.081 3.080h-4.926v-7.622h-5.56v7.622h-4.924c-1.702 0-3.081-1.378-3.081-3.080v-7.249c0-0.222 0.088-0.437 0.245-0.595l9.948-9.939z"></path>
</symbol>
<symbol id="icon-mail" viewBox="0 0 32 32">
<title>mail</title>
<path d="M31.097 27.682c-0.556 0.557-1.226 0.835-2.009 0.835h-26.176c-0.783 0-1.453-0.278-2.011-0.835s-0.835-1.228-0.835-2.011v-14.119c0.522 0.581 1.12 1.096 1.797 1.548 4.291 2.915 7.237 4.962 8.837 6.136 0.677 0.495 1.224 0.884 1.645 1.164 0.421 0.278 0.982 0.563 1.681 0.852 0.699 0.291 1.351 0.436 1.955 0.436h0.037c0.605 0 1.256-0.145 1.955-0.436 0.699-0.29 1.26-0.574 1.681-0.852 0.421-0.28 0.968-0.669 1.644-1.164 2.016-1.46 4.968-3.505 8.857-6.136 0.675-0.463 1.268-0.979 1.779-1.548v14.119c0 0.783-0.28 1.453-0.837 2.011zM28.893 11.195c-4.456 3.096-7.232 5.022-8.322 5.78-0.12 0.084-0.371 0.263-0.756 0.542s-0.706 0.505-0.96 0.677c-0.256 0.172-0.564 0.364-0.925 0.578-0.362 0.211-0.702 0.372-1.022 0.48-0.32 0.106-0.618 0.158-0.889 0.158h-0.037c-0.273 0-0.569-0.052-0.889-0.158-0.32-0.108-0.66-0.269-1.022-0.48-0.362-0.214-0.67-0.406-0.925-0.578s-0.574-0.397-0.96-0.677c-0.386-0.278-0.637-0.458-0.756-0.542-1.078-0.758-2.631-1.839-4.659-3.245-2.028-1.403-3.242-2.25-3.646-2.535-0.734-0.497-1.428-1.182-2.080-2.053s-0.979-1.681-0.979-2.427c0-0.925 0.246-1.696 0.738-2.312s1.194-0.925 2.107-0.925h26.178c0.771 0 1.438 0.278 2.001 0.835s0.845 1.226 0.845 2.009c0 0.938-0.291 1.832-0.872 2.686s-1.304 1.583-2.169 2.186z"></path>
</symbol>
<symbol id="icon-mobile" viewBox="6 6 22 24" width='16px' height='24px' >
<title>mobile</title>
<path d="M22.443 0.683h-12.888c-1.232 0-2.227 1-2.227 2.231v26.17c0 1.23 0.995 2.229 2.227 2.229h12.887c1.232 0 2.23-0.999 2.23-2.229v-26.17c0.001-1.231-0.997-2.231-2.229-2.231zM12.818 2.040h6.365c0.16 0 0.29 0.239 0.29 0.537 0 0.297-0.13 0.538-0.29 0.538h-6.365c-0.16 0-0.289-0.241-0.289-0.538 0-0.298 0.129-0.537 0.289-0.537zM16 29.112c-0.785 0-1.424-0.638-1.424-1.425 0-0.786 0.64-1.421 1.424-1.421s1.424 0.638 1.424 1.421c0 0.787-0.641 1.425-1.424 1.425zM23.002 24.234h-14.005v-19.786h14.005v19.786z"></path>
</symbol>
<symbol id="icon-mobile2" viewBox="8 0 16 32" width='16px' height='24px' >
<title>mobile</title>
<path d="M22.443 0.683h-12.888c-1.232 0-2.227 1-2.227 2.231v26.17c0 1.23 0.995 2.229 2.227 2.229h12.887c1.232 0 2.23-0.999 2.23-2.229v-26.17c0.001-1.231-0.997-2.231-2.229-2.231zM12.818 2.040h6.365c0.16 0 0.29 0.239 0.29 0.537 0 0.297-0.13 0.538-0.29 0.538h-6.365c-0.16 0-0.289-0.241-0.289-0.538 0-0.298 0.129-0.537 0.289-0.537zM16 29.112c-0.785 0-1.424-0.638-1.424-1.425 0-0.786 0.64-1.421 1.424-1.421s1.424 0.638 1.424 1.421c0 0.787-0.641 1.425-1.424 1.425zM23.002 24.234h-14.005v-19.786h14.005v19.786z"></path>
</symbol>
<symbol id="icon-notebook" viewBox="0 0 32 26">
<title>notebook</title>
<path  d="M31.216 26.488c-0.522 0.319-1.149 0.479-1.883 0.479h-26.666c-0.733 0-1.36-0.16-1.883-0.479s-0.783-0.709-0.783-1.165v-1.646h31.998v1.646c0 0.456-0.262 0.845-0.784 1.165zM17.333 24.773h-2.666c-0.178 0-0.267 0.091-0.267 0.274s0.089 0.275 0.267 0.275h2.666c0.178 0 0.267-0.092 0.267-0.275s-0.089-0.274-0.267-0.274zM25.066 22.58h-18.132c-0.733 0-1.361-0.269-1.883-0.805s-0.784-1.183-0.784-1.936v-12.065c0-0.755 0.261-1.4 0.784-1.937s1.15-0.806 1.883-0.806h18.132c0.733 0 1.361 0.268 1.883 0.806s0.784 1.182 0.784 1.937v12.065c0 0.753-0.262 1.4-0.784 1.936s-1.15 0.805-1.883 0.805zM25.599 7.773c0-0.149-0.053-0.277-0.158-0.387s-0.23-0.163-0.375-0.163h-18.132c-0.144 0-0.27 0.055-0.375 0.163-0.106 0.11-0.159 0.238-0.159 0.387v12.065c0 0.148 0.053 0.277 0.158 0.385s0.231 0.164 0.376 0.164h18.132c0.144 0 0.27-0.055 0.375-0.164 0.105-0.107 0.158-0.237 0.158-0.385v-12.065z"></path>
</symbol>
<symbol id="icon-pc" viewBox="0 0 34 32">
<title>pc</title>
<path d="M29.359 23.020h-17.509v-3.891h17.509v-15.563h-25.29c0-1.073 0.87-1.945 1.945-1.945h23.344c1.075 0 1.945 0.872 1.945 1.945v17.509c0 1.074-0.87 1.945-1.945 1.945zM17.686 20.101c-0.537 0-0.973 0.435-0.973 0.974s0.435 0.972 0.973 0.972c0.538 0 0.973-0.434 0.973-0.972 0-0.538-0.434-0.974-0.973-0.974zM9.905 7.457v21.398c0 1.075-0.87 1.945-1.945 1.945h-5.837c-1.074 0-1.945-0.87-1.945-1.945v-21.398c0-1.074 0.871-1.946 1.945-1.946h5.837c1.075 0 1.945 0.872 1.945 1.946zM3.096 24.965c0.537 0 0.973-0.435 0.973-0.973s-0.435-0.973-0.973-0.973c-0.538 0-0.974 0.434-0.974 0.973s0.435 0.973 0.974 0.973zM2.123 13.292h5.837v-1.945h-5.837v1.945zM2.123 9.402h5.837v-1.945h-5.837v1.945zM14.768 26.911v-1.946h5.836v1.946c1.075 0 1.946 0.87 1.946 1.944h-9.727c0-1.074 0.87-1.944 1.945-1.944z"></path>
</symbol>
<symbol id="icon-tablet" viewBox="5 0 23 32">
<title>tablet</title>
<path  d="M25.116 0.701h-18.232c-1.15 0-2.075 0.93-2.075 2.079v26.438c0 1.145 0.925 2.078 2.075 2.078h18.232c1.145 0 2.075-0.932 2.075-2.078v-26.438c0.002-1.149-0.93-2.079-2.075-2.079zM16.001 30.517c-0.683 0-1.234-0.551-1.234-1.233s0.551-1.233 1.234-1.233c0.68 0 1.234 0.551 1.234 1.233s-0.554 1.233-1.234 1.233zM25.092 26.969h-18.182v-23.772h18.182v23.772z"></path>
</symbol>
<symbol id="icon-telegram" viewBox="0 0 36 30">
<title>telegram</title>
<path  d="M31.838 1.184c-0.142-0.126-0.345-0.155-0.517-0.075l-31.043 14.546c-0.167 0.078-0.275 0.246-0.277 0.432-0.002 0.187 0.102 0.356 0.268 0.438l8.786 4.348c0.16 0.081 0.353 0.062 0.497-0.047l8.541-6.438-6.705 6.957c-0.096 0.099-0.145 0.235-0.134 0.373l0.668 8.769c0.015 0.193 0.144 0.359 0.327 0.42 0.049 0.016 0.1 0.025 0.149 0.025 0.137 0 0.27-0.059 0.363-0.167l4.662-5.449 5.765 2.777c0.125 0.061 0.27 0.063 0.397 0.007s0.224-0.165 0.266-0.298l8.129-26.111c0.058-0.182 0.002-0.381-0.141-0.508z"></path>
</symbol>
<symbol id="icon-time" viewBox="1 1 30 26">
<title>time</title>
<path d="M16 0.724c-8.435 0-15.273 6.839-15.273 15.273 0 8.436 6.838 15.274 15.273 15.274s15.273-6.838 15.273-15.274c0-8.433-6.838-15.273-15.273-15.273zM22.602 18.902h-6.474c-0.022 0-0.042-0.004-0.064-0.006-0.022 0.001-0.042 0.006-0.064 0.006-0.583 0-1.057-0.473-1.057-1.056v-10.781c0-0.585 0.474-1.057 1.057-1.057s1.056 0.473 1.056 1.057v9.725h5.546c0.583 0 1.056 0.473 1.056 1.056s-0.473 1.056-1.056 1.056z"></path>
</symbol>
<symbol id="icon-underground" viewBox="0 0 32 32">
<title>underground</title>
<path d="M25.78 3.838l-9.611 13.561-9.817-13.246-5.39 22.181h7.294l1.337-7.095 6.457 8.919 6.423-8.724 1.292 6.939h7.273l-5.259-22.535z"></path>
</symbol>
<symbol id="icon-underground2" viewBox="0 0 22 22">
<title>underground</title>
<path d="M25.78 3.838l-9.611 13.561-9.817-13.246-5.39 22.181h7.294l1.337-7.095 6.457 8.919 6.423-8.724 1.292 6.939h7.273l-5.259-22.535z"></path>
</symbol>
<symbol id="icon-instagram" viewBox="0 0 32 32">
<title>instagram</title>
<path  d="M16 0c-4.347 0-4.889 0.020-6.596 0.096-1.704 0.080-2.864 0.348-3.884 0.744-1.052 0.408-1.945 0.956-2.835 1.845s-1.439 1.781-1.845 2.835c-0.396 1.020-0.665 2.18-0.744 3.884-0.080 1.707-0.096 2.249-0.096 6.596s0.020 4.889 0.096 6.596c0.080 1.703 0.348 2.864 0.744 3.884 0.408 1.051 0.956 1.945 1.845 2.835 0.889 0.888 1.781 1.439 2.835 1.845 1.021 0.395 2.181 0.665 3.884 0.744 1.707 0.080 2.249 0.096 6.596 0.096s4.889-0.020 6.596-0.096c1.703-0.080 2.864-0.349 3.884-0.744 1.051-0.408 1.945-0.957 2.835-1.845 0.888-0.889 1.439-1.78 1.845-2.835 0.395-1.020 0.665-2.181 0.744-3.884 0.080-1.707 0.096-2.249 0.096-6.596s-0.020-4.889-0.096-6.596c-0.080-1.703-0.349-2.865-0.744-3.884-0.408-1.052-0.957-1.945-1.845-2.835-0.889-0.889-1.78-1.439-2.835-1.845-1.020-0.396-2.181-0.665-3.884-0.744-1.707-0.080-2.249-0.096-6.596-0.096zM16 2.88c4.271 0 4.78 0.021 6.467 0.095 1.56 0.073 2.407 0.332 2.969 0.553 0.749 0.289 1.28 0.636 1.843 1.195 0.559 0.56 0.905 1.092 1.195 1.841 0.219 0.563 0.48 1.409 0.551 2.969 0.076 1.688 0.093 2.195 0.093 6.467s-0.020 4.78-0.099 6.467c-0.081 1.56-0.341 2.407-0.561 2.969-0.299 0.749-0.639 1.28-1.199 1.843-0.559 0.559-1.099 0.905-1.84 1.195-0.56 0.219-1.42 0.48-2.98 0.551-1.699 0.076-2.199 0.093-6.479 0.093-4.281 0-4.781-0.020-6.479-0.099-1.561-0.081-2.421-0.341-2.981-0.561-0.759-0.299-1.28-0.639-1.839-1.199-0.561-0.559-0.92-1.099-1.2-1.84-0.22-0.56-0.479-1.42-0.56-2.98-0.060-1.68-0.081-2.199-0.081-6.459 0-4.261 0.021-4.781 0.081-6.481 0.081-1.56 0.34-2.419 0.56-2.979 0.28-0.76 0.639-1.28 1.2-1.841 0.559-0.559 1.080-0.919 1.839-1.197 0.56-0.221 1.401-0.481 2.961-0.561 1.7-0.060 2.2-0.080 6.479-0.080l0.060 0.040zM16 7.784c-4.54 0-8.216 3.68-8.216 8.216 0 4.54 3.68 8.216 8.216 8.216 4.54 0 8.216-3.68 8.216-8.216 0-4.54-3.68-8.216-8.216-8.216zM16 21.333c-2.947 0-5.333-2.387-5.333-5.333s2.387-5.333 5.333-5.333 5.333 2.387 5.333 5.333-2.387 5.333-5.333 5.333zM26.461 7.46c0 1.060-0.861 1.92-1.92 1.92-1.060 0-1.92-0.861-1.92-1.92s0.861-1.919 1.92-1.919c1.057-0.001 1.92 0.86 1.92 1.919z"></path>
</symbol>
<symbol id="icon-facebook" viewBox="0 0 32 32">
<title>facebook</title>
<path  d="M30.235 0h-28.469c-0.975 0-1.765 0.791-1.765 1.765v28.469c0 0.976 0.791 1.765 1.765 1.765h15.325v-12.392h-4.172v-4.828h4.172v-3.567c0-4.132 2.525-6.38 6.212-6.38 1.767 0 3.285 0.129 3.728 0.188v4.32h-2.561c-2 0-2.389 0.961-2.389 2.361v3.081h4.779l-0.62 4.84h-4.159v12.376h8.153c0.977 0 1.767-0.789 1.767-1.765v-28.469c0-0.975-0.789-1.765-1.765-1.765z"></path>
</symbol>
<symbol id="icon-youtube" viewBox="0 0 32 32">
<title>youtube</title>
<path  d="M31.327 8.273c-0.386-1.353-1.431-2.398-2.756-2.777l-0.028-0.007c-2.493-0.668-12.528-0.668-12.528-0.668s-10.009-0.013-12.528 0.668c-1.353 0.386-2.398 1.431-2.777 2.756l-0.007 0.028c-0.443 2.281-0.696 4.903-0.696 7.585 0 0.054 0 0.109 0 0.163l-0-0.008c-0 0.037-0 0.082-0 0.126 0 2.682 0.253 5.304 0.737 7.845l-0.041-0.26c0.386 1.353 1.431 2.398 2.756 2.777l0.028 0.007c2.491 0.669 12.528 0.669 12.528 0.669s10.008 0 12.528-0.669c1.353-0.386 2.398-1.431 2.777-2.756l0.007-0.028c0.425-2.233 0.668-4.803 0.668-7.429 0-0.099-0-0.198-0.001-0.297l0 0.015c0.001-0.092 0.001-0.201 0.001-0.31 0-2.626-0.243-5.196-0.708-7.687l0.040 0.258zM12.812 20.801v-9.591l8.352 4.803z"></path>
</symbol>
<symbol id="icon-keyboard_arrow_left" viewBox="0 0 24 24">
<title>keyboard_arrow_left</title>
<path d="M15.422 16.078l-1.406 1.406-6-6 6-6 1.406 1.406-4.594 4.594z"></path>
</symbol>
<symbol id="icon-keyboard_arrow_right1" viewBox="0 0 24 24">
<title>keyboard_arrow_right1</title>
<path d="M8.578 16.359l4.594-4.594-4.594-4.594 1.406-1.406 6 6-6 6z"></path>
</symbol>
<symbol id="icon-phone" viewBox="0 0 32 32">
<title>phone</title>
<path d="M22 20c-2 2-2 4-4 4s-4-2-6-4-4-4-4-6 2-2 4-4-4-8-6-8-6 6-6 6c0 4 4.109 12.109 8 16s12 8 16 8c0 0 6-4 6-6s-6-8-8-6z"></path>
</symbol>
<symbol id="icon-location" viewBox="0 0 32 32">
<title>location</title>
<path d="M16 0c-5.523 0-10 4.477-10 10 0 10 10 22 10 22s10-12 10-22c0-5.523-4.477-10-10-10zM16 16c-3.314 0-6-2.686-6-6s2.686-6 6-6 6 2.686 6 6-2.686 6-6 6z"></path>
</symbol>
</defs>
</svg>
