<svg class="header-nav__menu-item-icon icon"
viewBox="0 0 23 32"
 xmlns="http://www.w3.org/2000/svg"
 xmlns:xlink="http://www.w3.org/1999/xlink"
 width="23px" height="32px">
<path 
 d="M20.616,0.701 L2.384,0.701 C1.234,0.701 0.309,1.631 0.309,2.780 L0.309,29.218 C0.309,30.363 1.234,31.296 2.384,31.296 L20.616,31.296 C21.761,31.296 22.691,30.364 22.691,29.218 L22.691,2.780 C22.693,1.631 21.761,0.701 20.616,0.701 ZM11.501,30.517 C10.818,30.517 10.267,29.966 10.267,29.284 C10.267,28.602 10.818,28.051 11.501,28.051 C12.181,28.051 12.735,28.602 12.735,29.284 C12.735,29.966 12.181,30.517 11.501,30.517 ZM20.592,26.969 L2.410,26.969 L2.410,3.197 L20.592,3.197 L20.592,26.969 Z"/>
</svg>