<svg viewBox="0 0 36 30"
 xmlns="http://www.w3.org/2000/svg"
 xmlns:xlink="http://www.w3.org/1999/xlink"
class="header-nav__menu-item-icon icon" width="37px" height="32px">
<path fill-rule="evenodd"  fill="rgb(233, 244, 249)"
 d="M29.848,0.110 C29.715,-0.008 29.525,-0.035 29.363,0.040 L0.260,13.677 C0.103,13.750 0.002,13.908 0.000,14.082 C-0.002,14.257 0.096,14.416 0.251,14.493 L8.488,18.569 C8.638,18.645 8.819,18.627 8.954,18.525 L16.961,12.489 L10.675,19.011 C10.585,19.104 10.539,19.231 10.549,19.361 L11.175,27.582 C11.189,27.763 11.310,27.919 11.482,27.976 C11.528,27.991 11.576,27.999 11.622,27.999 C11.750,27.999 11.875,27.944 11.962,27.842 L16.333,22.734 L21.738,25.337 C21.855,25.394 21.991,25.396 22.110,25.344 C22.229,25.292 22.320,25.189 22.359,25.065 L29.980,0.586 C30.034,0.415 29.982,0.229 29.848,0.110 Z"/>
</svg>