<svg class=" footer-main__contacts-shedule-icon" width="18px" height="20px"
 xmlns="http://www.w3.org/2000/svg"
 xmlns:xlink="http://www.w3.org/1999/xlink"
 viewBox="1 1 30 26">

<path  
 d="M11.000,0.498 C5.201,0.498 0.500,5.200 0.500,10.998 C0.500,16.798 5.201,21.499 11.000,21.499 C16.799,21.499 21.500,16.798 21.500,10.998 C21.500,5.200 16.799,0.498 11.000,0.498 ZM15.539,12.995 L11.088,12.995 C11.073,12.995 11.059,12.992 11.044,12.991 C11.029,12.992 11.015,12.995 11.000,12.995 C10.599,12.995 10.273,12.670 10.273,12.269 L10.273,4.857 C10.273,4.455 10.599,4.130 11.000,4.130 C11.401,4.130 11.726,4.455 11.726,4.857 L11.726,11.543 L15.539,11.543 C15.940,11.543 16.265,11.868 16.265,12.269 C16.265,12.670 15.940,12.995 15.539,12.995 Z"/>
</g>
</svg>