<svg viewBox="0 0 19 32"
 xmlns="http://www.w3.org/2000/svg"
 xmlns:xlink="http://www.w3.org/1999/xlink"  class="warranty__services-icon" width="19px" height="32px">
<path
 d="M17.392,0.350 L2.657,0.350 C1.429,0.350 0.424,1.361 0.424,2.599 L0.424,31.399 C0.424,32.635 1.429,33.644 2.657,33.646 L17.392,33.646 C18.620,33.644 19.625,32.635 19.625,31.399 L19.625,2.599 C19.625,1.361 18.620,0.350 17.392,0.350 ZM7.667,1.971 L12.382,1.971 C12.530,1.971 12.652,2.093 12.652,2.243 C12.652,2.393 12.531,2.516 12.382,2.516 L7.668,2.516 C7.519,2.516 7.397,2.393 7.397,2.243 C7.397,2.093 7.519,1.971 7.667,1.971 ZM1.977,29.484 L1.977,3.916 L18.071,3.916 L18.071,27.181 L14.439,20.845 C15.528,19.173 15.683,16.970 14.623,15.120 C13.561,13.268 11.590,12.302 9.608,12.415 L11.622,15.930 C12.293,17.100 11.895,18.598 10.733,19.274 C9.572,19.949 8.086,19.547 7.416,18.377 L5.400,14.860 C4.312,16.534 4.157,18.738 5.218,20.589 C6.278,22.439 8.249,23.404 10.231,23.292 L13.780,29.484 L1.977,29.484 ZM10.025,32.526 C9.408,32.526 8.909,32.019 8.909,31.399 C8.909,30.777 9.408,30.273 10.025,30.273 C10.641,30.273 11.141,30.777 11.141,31.399 C11.141,32.019 10.641,32.526 10.025,32.526 Z"/>
</svg>