<svg 
 xmlns="http://www.w3.org/2000/svg"
 xmlns:xlink="http://www.w3.org/1999/xlink"
viewBox="0 0 33 32" class="warranty__services-icon warranty__services-icon--mr2" width="29px" height="30px">
<path 
 d="M19.571,11.454 C18.928,11.382 18.273,11.541 17.716,11.911 L14.998,9.236 C15.383,8.673 15.548,8.008 15.473,7.358 L22.789,0.043 L26.884,4.138 L19.571,11.454 ZM24.729,21.316 C25.781,22.373 25.781,24.078 24.729,25.127 C24.202,25.652 23.513,25.918 22.824,25.918 C22.134,25.918 21.445,25.652 20.919,25.127 L7.620,11.828 L7.601,11.810 C5.622,12.455 3.358,11.994 1.787,10.422 C0.288,8.922 -0.202,6.800 0.314,4.893 L3.546,8.123 L6.715,7.274 L7.564,4.109 L4.331,0.876 C6.240,0.358 8.361,0.850 9.863,2.345 C11.370,3.855 11.857,6.001 11.320,7.921 L24.729,21.316 ZM23.055,24.675 C23.627,24.675 24.088,24.215 24.087,23.645 C24.087,23.076 23.626,22.618 23.055,22.618 C22.490,22.618 22.031,23.076 22.031,23.645 C22.031,24.215 22.490,24.675 23.055,24.675 ZM4.693,20.556 L4.958,20.822 L9.601,16.175 L10.758,17.316 L6.106,21.968 L6.372,22.238 L5.252,23.621 L1.568,25.957 L0.970,25.359 L3.305,21.677 L4.693,20.556 Z"/>
</svg>