<svg 
 xmlns="http://www.w3.org/2000/svg"
 xmlns:xlink="http://www.w3.org/1999/xlink"
 class="warranty__services-icon warranty__services-icon--mr2 " width="24px" height="40px" viewBox="0 0 28 32">
<path 
 d="M24.216,16.097 C24.748,15.293 25.014,14.407 25.014,13.440 C25.014,12.322 24.602,11.349 23.776,10.523 C22.950,9.697 21.973,9.284 20.843,9.284 L17.975,9.284 C18.497,8.209 18.758,7.167 18.758,6.156 C18.758,4.885 18.567,3.875 18.187,3.126 C17.807,2.375 17.253,1.824 16.525,1.471 C15.797,1.118 14.977,0.942 14.064,0.942 C13.510,0.942 13.021,1.142 12.598,1.545 C12.131,2.001 11.794,2.587 11.587,3.305 C11.381,4.022 11.215,4.709 11.090,5.366 C10.966,6.023 10.773,6.488 10.512,6.759 C9.980,7.335 9.399,8.031 8.768,8.845 C7.671,10.268 6.927,11.110 6.536,11.371 L2.072,11.371 C1.496,11.371 1.004,11.575 0.597,11.982 C0.189,12.389 -0.014,12.881 -0.014,13.456 L-0.014,23.885 C-0.014,24.461 0.189,24.952 0.597,25.360 C1.004,25.767 1.496,25.972 2.072,25.972 L6.764,25.972 C7.003,25.972 7.753,26.188 9.013,26.623 C10.349,27.090 11.525,27.446 12.541,27.690 C13.556,27.935 14.586,28.057 15.629,28.057 L17.143,28.057 L17.731,28.057 C19.262,28.057 20.495,27.619 21.429,26.744 C22.363,25.871 22.825,24.678 22.815,23.168 C23.466,22.332 23.792,21.365 23.792,20.268 C23.792,20.029 23.776,19.795 23.743,19.567 C24.156,18.840 24.363,18.057 24.363,17.221 C24.363,16.830 24.314,16.455 24.216,16.097 ZM3.848,23.576 C3.641,23.782 3.397,23.886 3.114,23.886 C2.832,23.886 2.588,23.782 2.381,23.576 C2.175,23.369 2.072,23.124 2.072,22.842 C2.072,22.560 2.174,22.316 2.381,22.109 C2.588,21.903 2.832,21.799 3.114,21.799 C3.397,21.799 3.641,21.903 3.848,22.109 C4.054,22.316 4.157,22.560 4.157,22.842 C4.157,23.124 4.054,23.369 3.848,23.576 ZM22.579,14.777 C22.345,15.277 22.054,15.532 21.707,15.543 C21.870,15.727 22.006,15.986 22.114,16.317 C22.223,16.648 22.277,16.950 22.277,17.221 C22.277,17.971 21.989,18.617 21.413,19.160 C21.609,19.507 21.707,19.882 21.707,20.284 C21.707,20.686 21.612,21.085 21.422,21.482 C21.232,21.878 20.974,22.163 20.648,22.337 C20.702,22.662 20.729,22.967 20.729,23.249 C20.729,25.064 19.686,25.970 17.600,25.970 L15.629,25.970 C14.206,25.970 12.348,25.575 10.056,24.781 C10.002,24.759 9.844,24.702 9.584,24.610 C9.323,24.518 9.130,24.450 9.005,24.406 C8.880,24.362 8.690,24.301 8.434,24.219 C8.179,24.138 7.973,24.078 7.815,24.039 C7.658,24.002 7.478,23.967 7.278,23.933 C7.077,23.902 6.906,23.885 6.764,23.885 L6.243,23.885 L6.243,13.457 L6.764,13.457 C6.938,13.457 7.131,13.408 7.343,13.311 C7.555,13.213 7.772,13.066 7.995,12.870 C8.217,12.675 8.426,12.481 8.622,12.292 C8.818,12.102 9.035,11.863 9.274,11.575 C9.513,11.287 9.700,11.056 9.836,10.882 C9.972,10.708 10.143,10.486 10.349,10.214 C10.556,9.943 10.681,9.779 10.724,9.725 C11.321,8.987 11.740,8.493 11.979,8.242 C12.424,7.775 12.747,7.181 12.948,6.458 C13.149,5.736 13.315,5.054 13.445,4.414 C13.575,3.773 13.782,3.311 14.065,3.028 C15.107,3.028 15.803,3.283 16.150,3.794 C16.498,4.305 16.672,5.093 16.672,6.157 C16.672,6.798 16.411,7.669 15.889,8.772 C15.368,9.875 15.107,10.740 15.107,11.371 L20.843,11.371 C21.386,11.371 21.870,11.580 22.293,11.998 C22.717,12.416 22.929,12.903 22.929,13.456 C22.929,13.837 22.812,14.277 22.579,14.777 Z"/>
</svg>